<svg width="47" height="43" viewBox="0 0 47 43" fill="none" xmlns="http://www.w3.org/2000/svg">
<path d="M26.25 7.80435C26.25 9.61691 24.7375 11.1087 22.8438 11.1087C20.95 11.1087 19.4375 9.61691 19.4375 7.80435C19.4375 5.99178 20.95 4.5 22.8438 4.5C24.7375 4.5 26.25 5.99178 26.25 7.80435Z" stroke="black"/>
<mask id="path-2-inside-1_74_195" fill="white">
<path fill-rule="evenodd" clip-rule="evenodd" d="M27.0625 17.087C27.019 16.4323 26.9292 16.0954 26.75 15.4898C26.5155 14.6971 26.2335 13.9873 25.8125 13.3979C25.3914 12.8083 25.0818 12.5185 24.5625 12.2174C24.045 11.9173 23.5356 11.6087 23 11.6087C22.4644 11.6087 21.955 11.9173 21.4375 12.2174C20.9182 12.5185 20.6086 12.8452 20.1875 13.4348C19.7665 14.0242 19.4845 14.6971 19.25 15.4898C19.0708 16.0954 18.981 16.4323 18.9375 17.087H23H27.0625ZM27.9811 17.3913C27.9368 16.6807 27.815 15.9825 27.6194 15.3212C27.3681 14.4719 26.9998 13.7003 26.5355 13.0503C26.0712 12.4002 25.52 11.8846 24.9134 11.5328C24.3068 11.1811 23.6566 11 23 11C22.3434 11 21.6932 11.1811 21.0866 11.5328C20.48 11.8846 19.9288 12.4002 19.4645 13.0503C19.0002 13.7003 18.6319 14.4719 18.3806 15.3212C18.185 15.9825 18.0632 16.6807 18.0189 17.3913C18.0063 17.5934 18 17.7965 18 18L28 18C28 17.7965 27.9937 17.5934 27.9811 17.3913Z"/>
</mask>
<path fill-rule="evenodd" clip-rule="evenodd" d="M27.0625 17.087C27.019 16.4323 26.9292 16.0954 26.75 15.4898C26.5155 14.6971 26.2335 13.9873 25.8125 13.3979C25.3914 12.8083 25.0818 12.5185 24.5625 12.2174C24.045 11.9173 23.5356 11.6087 23 11.6087C22.4644 11.6087 21.955 11.9173 21.4375 12.2174C20.9182 12.5185 20.6086 12.8452 20.1875 13.4348C19.7665 14.0242 19.4845 14.6971 19.25 15.4898C19.0708 16.0954 18.981 16.4323 18.9375 17.087H23H27.0625ZM27.9811 17.3913C27.9368 16.6807 27.815 15.9825 27.6194 15.3212C27.3681 14.4719 26.9998 13.7003 26.5355 13.0503C26.0712 12.4002 25.52 11.8846 24.9134 11.5328C24.3068 11.1811 23.6566 11 23 11C22.3434 11 21.6932 11.1811 21.0866 11.5328C20.48 11.8846 19.9288 12.4002 19.4645 13.0503C19.0002 13.7003 18.6319 14.4719 18.3806 15.3212C18.185 15.9825 18.0632 16.6807 18.0189 17.3913C18.0063 17.5934 18 17.7965 18 18L28 18C28 17.7965 27.9937 17.5934 27.9811 17.3913Z" fill="black"/>
<path d="M26.75 15.4898L24.8322 16.0572L24.8322 16.0572L26.75 15.4898ZM27.0625 17.087V19.087H29.1997L29.0581 16.9544L27.0625 17.087ZM25.8125 13.3979L27.44 12.2354L27.44 12.2354L25.8125 13.3979ZM24.5625 12.2174L23.5592 13.9475L23.5592 13.9475L24.5625 12.2174ZM23 11.6087L23 13.6087L23 13.6087L23 11.6087ZM21.4375 12.2174L20.4342 10.4873L20.4342 10.4873L21.4375 12.2174ZM20.1875 13.4348L21.815 14.5973L21.815 14.5973L20.1875 13.4348ZM19.25 15.4898L17.3322 14.9223L17.3322 14.9223L19.25 15.4898ZM18.9375 17.087L16.9419 16.9544L16.8003 19.087H18.9375V17.087ZM27.9811 17.3913L29.9772 17.2669L29.9772 17.2668L27.9811 17.3913ZM27.6194 15.3212L25.7016 15.8886L25.7016 15.8886L27.6194 15.3212ZM26.5355 13.0503L24.9081 14.2127L24.9081 14.2127L26.5355 13.0503ZM24.9134 11.5328L25.9167 9.8027L25.9167 9.8027L24.9134 11.5328ZM21.0866 11.5328L22.0899 13.263L22.0899 13.263L21.0866 11.5328ZM18.3806 15.3212L16.4628 14.7538L16.4628 14.7538L18.3806 15.3212ZM18.0189 17.3913L20.0151 17.5158L20.0151 17.5158L18.0189 17.3913ZM18 18H16V20L18 20L18 18ZM28 18L28 20L30 20V18H28ZM24.8322 16.0572C24.9936 16.6026 25.0376 16.7779 25.0669 17.2195L29.0581 16.9544C29.0005 16.0866 28.8648 15.5881 28.6678 14.9223L24.8322 16.0572ZM24.185 14.5603C24.4175 14.8858 24.6231 15.3505 24.8322 16.0572L28.6678 14.9223C28.4079 14.0437 28.0496 13.0888 27.44 12.2354L24.185 14.5603ZM23.5592 13.9475C23.792 14.0825 23.8997 14.1609 24.185 14.5603L27.44 12.2354C26.8831 11.4558 26.3717 10.9546 25.5658 10.4873L23.5592 13.9475ZM23 13.6087C22.8847 13.6087 22.8577 13.5759 22.9784 13.6293C23.035 13.6544 23.1082 13.6911 23.2091 13.7468C23.314 13.8047 23.4176 13.8654 23.5592 13.9475L25.5658 10.4873C25.2152 10.2839 24.1901 9.6087 23 9.6087L23 13.6087ZM22.4408 13.9475C22.5824 13.8654 22.686 13.8047 22.7909 13.7468C22.8918 13.6911 22.965 13.6544 23.0216 13.6293C23.1423 13.5759 23.1153 13.6087 23 13.6087V9.6087C21.8099 9.6087 20.7848 10.2839 20.4342 10.4873L22.4408 13.9475ZM21.815 14.5973C22.1445 14.1359 22.2577 14.0537 22.4408 13.9475L20.4342 10.4873C19.5786 10.9834 19.0727 11.5546 18.56 12.2723L21.815 14.5973ZM21.1678 16.0572C21.3676 15.3819 21.5706 14.9394 21.815 14.5973L18.56 12.2723C17.9624 13.109 17.6014 14.0122 17.3322 14.9223L21.1678 16.0572ZM20.9331 17.2195C20.9624 16.7779 21.0064 16.6026 21.1678 16.0572L17.3322 14.9223C17.1352 15.5881 16.9995 16.0866 16.9419 16.9544L20.9331 17.2195ZM29.9772 17.2668C29.9239 16.4117 29.7771 15.5646 29.5372 14.7538L25.7016 15.8886C25.853 16.4003 25.9496 16.9496 25.9849 17.5158L29.9772 17.2668ZM29.5372 14.7538C29.2297 13.7144 28.7697 12.7372 28.163 11.8878L24.9081 14.2127C25.2299 14.6633 25.5065 15.2294 25.7016 15.8886L29.5372 14.7538ZM28.163 11.8878C27.5564 11.0385 26.8014 10.3158 25.9167 9.8027L23.9101 13.263C24.2387 13.4535 24.5861 13.762 24.9081 14.2127L28.163 11.8878ZM25.9167 9.8027C25.0267 9.28661 24.033 9 23 9V13C23.2802 13 23.5868 13.0755 23.9101 13.263L25.9167 9.8027ZM23 9C21.967 9 20.9733 9.28661 20.0833 9.80271L22.0899 13.263C22.4132 13.0755 22.7198 13 23 13V9ZM20.0833 9.80271C19.1986 10.3158 18.4436 11.0385 17.837 11.8878L21.0919 14.2127C21.4139 13.762 21.7613 13.4535 22.0899 13.263L20.0833 9.80271ZM17.837 11.8878C17.2303 12.7372 16.7703 13.7144 16.4628 14.7538L20.2984 15.8886C20.4935 15.2294 20.7701 14.6633 21.0919 14.2127L17.837 11.8878ZM16.4628 14.7538C16.2229 15.5646 16.0761 16.4117 16.0228 17.2669L20.0151 17.5158C20.0504 16.9496 20.147 16.4003 20.2984 15.8886L16.4628 14.7538ZM16.0228 17.2669C16.0076 17.5104 16 17.755 16 18H20C20 17.838 20.005 17.6764 20.0151 17.5158L16.0228 17.2669ZM30 18C30 17.755 29.9924 17.5104 29.9772 17.2669L25.9849 17.5158C25.995 17.6764 26 17.838 26 18H30ZM18 20L28 20L28 16L18 16L18 20ZM27.0625 15.087H23V19.087H27.0625V15.087ZM23 15.087H18.9375V19.087H23V15.087Z" fill="black" mask="url(#path-2-inside-1_74_195)"/>
<path d="M16.25 7.80435C16.25 9.61691 14.7375 11.1087 12.8438 11.1087C10.95 11.1087 9.4375 9.61691 9.4375 7.80435C9.4375 5.99178 10.95 4.5 12.8438 4.5C14.7375 4.5 16.25 5.99178 16.25 7.80435Z" stroke="black"/>
<mask id="path-5-inside-2_74_195" fill="white">
<path fill-rule="evenodd" clip-rule="evenodd" d="M17.0625 17.087C17.019 16.4323 16.9292 16.0954 16.75 15.4898C16.5155 14.6971 16.2335 13.9873 15.8125 13.3979C15.3914 12.8083 15.0818 12.5185 14.5625 12.2174C14.045 11.9173 13.5356 11.6087 13 11.6087C12.4644 11.6087 11.955 11.9173 11.4375 12.2174C10.9182 12.5185 10.6086 12.8452 10.1875 13.4348C9.76648 14.0242 9.48453 14.6971 9.25 15.4898C9.07082 16.0954 8.98097 16.4323 8.9375 17.087H13H17.0625ZM17.9811 17.3913C17.9368 16.6807 17.815 15.9825 17.6194 15.3212C17.3681 14.4719 16.9998 13.7003 16.5355 13.0503C16.0712 12.4002 15.52 11.8846 14.9134 11.5328C14.3068 11.1811 13.6566 11 13 11C12.3434 11 11.6932 11.1811 11.0866 11.5328C10.48 11.8846 9.92876 12.4002 9.46447 13.0503C9.00017 13.7003 8.63188 14.4719 8.3806 15.3212C8.18496 15.9825 8.06325 16.6807 8.01894 17.3913C8.00634 17.5934 8 17.7965 8 18L18 18C18 17.7965 17.9937 17.5934 17.9811 17.3913Z"/>
</mask>
<path fill-rule="evenodd" clip-rule="evenodd" d="M17.0625 17.087C17.019 16.4323 16.9292 16.0954 16.75 15.4898C16.5155 14.6971 16.2335 13.9873 15.8125 13.3979C15.3914 12.8083 15.0818 12.5185 14.5625 12.2174C14.045 11.9173 13.5356 11.6087 13 11.6087C12.4644 11.6087 11.955 11.9173 11.4375 12.2174C10.9182 12.5185 10.6086 12.8452 10.1875 13.4348C9.76648 14.0242 9.48453 14.6971 9.25 15.4898C9.07082 16.0954 8.98097 16.4323 8.9375 17.087H13H17.0625ZM17.9811 17.3913C17.9368 16.6807 17.815 15.9825 17.6194 15.3212C17.3681 14.4719 16.9998 13.7003 16.5355 13.0503C16.0712 12.4002 15.52 11.8846 14.9134 11.5328C14.3068 11.1811 13.6566 11 13 11C12.3434 11 11.6932 11.1811 11.0866 11.5328C10.48 11.8846 9.92876 12.4002 9.46447 13.0503C9.00017 13.7003 8.63188 14.4719 8.3806 15.3212C8.18496 15.9825 8.06325 16.6807 8.01894 17.3913C8.00634 17.5934 8 17.7965 8 18L18 18C18 17.7965 17.9937 17.5934 17.9811 17.3913Z" fill="black"/>
<path d="M16.75 15.4898L14.8322 16.0572L14.8322 16.0572L16.75 15.4898ZM17.0625 17.087V19.087H19.1997L19.0581 16.9544L17.0625 17.087ZM15.8125 13.3979L17.44 12.2354L17.44 12.2354L15.8125 13.3979ZM14.5625 12.2174L13.5592 13.9475L13.5592 13.9475L14.5625 12.2174ZM13 11.6087L13 13.6087L13 13.6087L13 11.6087ZM11.4375 12.2174L10.4342 10.4873L10.4342 10.4873L11.4375 12.2174ZM10.1875 13.4348L11.815 14.5973L11.815 14.5973L10.1875 13.4348ZM9.25 15.4898L7.33218 14.9223L7.33218 14.9223L9.25 15.4898ZM8.9375 17.087L6.9419 16.9544L6.80028 19.087H8.9375V17.087ZM17.9811 17.3913L19.9772 17.2669L19.9772 17.2668L17.9811 17.3913ZM17.6194 15.3212L15.7016 15.8886L15.7016 15.8886L17.6194 15.3212ZM16.5355 13.0503L14.9081 14.2127L14.9081 14.2127L16.5355 13.0503ZM14.9134 11.5328L15.9167 9.8027L15.9167 9.8027L14.9134 11.5328ZM11.0866 11.5328L12.0899 13.263L12.0899 13.263L11.0866 11.5328ZM8.3806 15.3212L6.46278 14.7538L6.46278 14.7538L8.3806 15.3212ZM8.01894 17.3913L10.0151 17.5158L10.0151 17.5158L8.01894 17.3913ZM8 18H6V20L8 20L8 18ZM18 18L18 20L20 20V18H18ZM14.8322 16.0572C14.9936 16.6026 15.0376 16.7779 15.0669 17.2195L19.0581 16.9544C19.0005 16.0866 18.8648 15.5881 18.6678 14.9223L14.8322 16.0572ZM14.185 14.5603C14.4175 14.8858 14.6231 15.3505 14.8322 16.0572L18.6678 14.9223C18.4079 14.0437 18.0496 13.0888 17.44 12.2354L14.185 14.5603ZM13.5592 13.9475C13.792 14.0825 13.8997 14.1609 14.185 14.5603L17.44 12.2354C16.8831 11.4558 16.3717 10.9546 15.5658 10.4873L13.5592 13.9475ZM13 13.6087C12.8847 13.6087 12.8577 13.5759 12.9784 13.6293C13.035 13.6544 13.1082 13.6911 13.2091 13.7468C13.314 13.8047 13.4176 13.8654 13.5592 13.9475L15.5658 10.4873C15.2152 10.2839 14.1901 9.6087 13 9.6087L13 13.6087ZM12.4408 13.9475C12.5824 13.8654 12.686 13.8047 12.7909 13.7468C12.8918 13.6911 12.965 13.6544 13.0216 13.6293C13.1423 13.5759 13.1153 13.6087 13 13.6087V9.6087C11.8099 9.6087 10.7848 10.2839 10.4342 10.4873L12.4408 13.9475ZM11.815 14.5973C12.1445 14.1359 12.2577 14.0537 12.4408 13.9475L10.4342 10.4873C9.57865 10.9834 9.07268 11.5546 8.56003 12.2723L11.815 14.5973ZM11.1678 16.0572C11.3676 15.3819 11.5706 14.9394 11.815 14.5973L8.56003 12.2723C7.96237 13.109 7.60145 14.0122 7.33218 14.9223L11.1678 16.0572ZM10.9331 17.2195C10.9624 16.7779 11.0064 16.6026 11.1678 16.0572L7.33218 14.9223C7.1352 15.5881 6.99952 16.0866 6.9419 16.9544L10.9331 17.2195ZM19.9772 17.2668C19.9239 16.4117 19.7771 15.5646 19.5372 14.7538L15.7016 15.8886C15.853 16.4003 15.9496 16.9496 15.9849 17.5158L19.9772 17.2668ZM19.5372 14.7538C19.2297 13.7144 18.7697 12.7372 18.163 11.8878L14.9081 14.2127C15.2299 14.6633 15.5065 15.2294 15.7016 15.8886L19.5372 14.7538ZM18.163 11.8878C17.5564 11.0385 16.8014 10.3158 15.9167 9.8027L13.9101 13.263C14.2387 13.4535 14.5861 13.762 14.9081 14.2127L18.163 11.8878ZM15.9167 9.8027C15.0267 9.28661 14.033 9 13 9V13C13.2802 13 13.5868 13.0755 13.9101 13.263L15.9167 9.8027ZM13 9C11.967 9 10.9733 9.28661 10.0833 9.80271L12.0899 13.263C12.4132 13.0755 12.7198 13 13 13V9ZM10.0833 9.80271C9.19856 10.3158 8.44364 11.0385 7.837 11.8878L11.0919 14.2127C11.4139 13.762 11.7613 13.4535 12.0899 13.263L10.0833 9.80271ZM7.837 11.8878C7.23028 12.7372 6.7703 13.7144 6.46278 14.7538L10.2984 15.8886C10.4935 15.2294 10.7701 14.6633 11.0919 14.2127L7.837 11.8878ZM6.46278 14.7538C6.22289 15.5646 6.07613 16.4117 6.02282 17.2669L10.0151 17.5158C10.0504 16.9496 10.147 16.4003 10.2984 15.8886L6.46278 14.7538ZM6.02282 17.2669C6.00763 17.5104 6 17.755 6 18H10C10 17.838 10.005 17.6764 10.0151 17.5158L6.02282 17.2669ZM20 18C20 17.755 19.9924 17.5104 19.9772 17.2669L15.9849 17.5158C15.995 17.6764 16 17.838 16 18H20ZM8 20L18 20L18 16L8 16L8 20ZM17.0625 15.087H13V19.087H17.0625V15.087ZM13 15.087H8.9375V19.087H13V15.087Z" fill="black" mask="url(#path-5-inside-2_74_195)"/>
<path d="M21.25 16.8043C21.25 18.6169 19.7375 20.1087 17.8438 20.1087C15.95 20.1087 14.4375 18.6169 14.4375 16.8043C14.4375 14.9918 15.95 13.5 17.8438 13.5C19.7375 13.5 21.25 14.9918 21.25 16.8043Z" fill="white" stroke="black"/>
<mask id="path-8-inside-3_74_195" fill="white">
<path fill-rule="evenodd" clip-rule="evenodd" d="M22.0625 26.087C22.019 25.4323 21.9292 25.0954 21.75 24.4898C21.5155 23.6971 21.2335 22.9873 20.8125 22.3979C20.3914 21.8083 20.0818 21.5185 19.5625 21.2174C19.045 20.9173 18.5356 20.6087 18 20.6087C17.4644 20.6087 16.955 20.9173 16.4375 21.2174C15.9182 21.5185 15.6086 21.8452 15.1875 22.4348C14.7665 23.0242 14.4845 23.6971 14.25 24.4898C14.0708 25.0954 13.981 25.4323 13.9375 26.087H18H22.0625ZM22.9811 26.3913C22.9368 25.6807 22.815 24.9825 22.6194 24.3212C22.3681 23.4719 21.9998 22.7003 21.5355 22.0503C21.0712 21.4002 20.52 20.8846 19.9134 20.5328C19.3068 20.1811 18.6566 20 18 20C17.3434 20 16.6932 20.1811 16.0866 20.5328C15.48 20.8846 14.9288 21.4002 14.4645 22.0503C14.0002 22.7003 13.6319 23.4719 13.3806 24.3212C13.185 24.9825 13.0632 25.6807 13.0189 26.3913C13.0063 26.5934 13 26.7965 13 27L23 27C23 26.7965 22.9937 26.5934 22.9811 26.3913Z"/>
</mask>
<path fill-rule="evenodd" clip-rule="evenodd" d="M22.0625 26.087C22.019 25.4323 21.9292 25.0954 21.75 24.4898C21.5155 23.6971 21.2335 22.9873 20.8125 22.3979C20.3914 21.8083 20.0818 21.5185 19.5625 21.2174C19.045 20.9173 18.5356 20.6087 18 20.6087C17.4644 20.6087 16.955 20.9173 16.4375 21.2174C15.9182 21.5185 15.6086 21.8452 15.1875 22.4348C14.7665 23.0242 14.4845 23.6971 14.25 24.4898C14.0708 25.0954 13.981 25.4323 13.9375 26.087H18H22.0625ZM22.9811 26.3913C22.9368 25.6807 22.815 24.9825 22.6194 24.3212C22.3681 23.4719 21.9998 22.7003 21.5355 22.0503C21.0712 21.4002 20.52 20.8846 19.9134 20.5328C19.3068 20.1811 18.6566 20 18 20C17.3434 20 16.6932 20.1811 16.0866 20.5328C15.48 20.8846 14.9288 21.4002 14.4645 22.0503C14.0002 22.7003 13.6319 23.4719 13.3806 24.3212C13.185 24.9825 13.0632 25.6807 13.0189 26.3913C13.0063 26.5934 13 26.7965 13 27L23 27C23 26.7965 22.9937 26.5934 22.9811 26.3913Z" fill="black"/>
<path d="M21.75 24.4898L19.8322 25.0572L19.8322 25.0572L21.75 24.4898ZM22.0625 26.087V28.087H24.1997L24.0581 25.9544L22.0625 26.087ZM20.8125 22.3979L22.44 21.2354L22.44 21.2354L20.8125 22.3979ZM19.5625 21.2174L18.5592 22.9475L18.5592 22.9475L19.5625 21.2174ZM18 20.6087L18 22.6087L18 22.6087L18 20.6087ZM16.4375 21.2174L15.4342 19.4873L15.4342 19.4873L16.4375 21.2174ZM15.1875 22.4348L16.815 23.5973L16.815 23.5973L15.1875 22.4348ZM14.25 24.4898L12.3322 23.9223L12.3322 23.9223L14.25 24.4898ZM13.9375 26.087L11.9419 25.9544L11.8003 28.087H13.9375V26.087ZM22.9811 26.3913L24.9772 26.2669L24.9772 26.2668L22.9811 26.3913ZM22.6194 24.3212L20.7016 24.8886L20.7016 24.8886L22.6194 24.3212ZM21.5355 22.0503L19.9081 23.2127L19.9081 23.2127L21.5355 22.0503ZM19.9134 20.5328L20.9167 18.8027L20.9167 18.8027L19.9134 20.5328ZM16.0866 20.5328L17.0899 22.263L17.0899 22.263L16.0866 20.5328ZM13.3806 24.3212L11.4628 23.7538L11.4628 23.7538L13.3806 24.3212ZM13.0189 26.3913L15.0151 26.5158L15.0151 26.5158L13.0189 26.3913ZM13 27H11V29L13 29L13 27ZM23 27L23 29L25 29V27H23ZM19.8322 25.0572C19.9936 25.6026 20.0376 25.7779 20.0669 26.2195L24.0581 25.9544C24.0005 25.0866 23.8648 24.5881 23.6678 23.9223L19.8322 25.0572ZM19.185 23.5603C19.4175 23.8858 19.6231 24.3505 19.8322 25.0572L23.6678 23.9223C23.4079 23.0437 23.0496 22.0888 22.44 21.2354L19.185 23.5603ZM18.5592 22.9475C18.792 23.0825 18.8997 23.1609 19.185 23.5603L22.44 21.2354C21.8831 20.4558 21.3717 19.9546 20.5658 19.4873L18.5592 22.9475ZM18 22.6087C17.8847 22.6087 17.8577 22.5759 17.9784 22.6293C18.035 22.6544 18.1082 22.6911 18.2091 22.7468C18.314 22.8047 18.4176 22.8654 18.5592 22.9475L20.5658 19.4873C20.2152 19.2839 19.1901 18.6087 18 18.6087L18 22.6087ZM17.4408 22.9475C17.5824 22.8654 17.686 22.8047 17.7909 22.7468C17.8918 22.6911 17.965 22.6544 18.0216 22.6293C18.1423 22.5759 18.1153 22.6087 18 22.6087V18.6087C16.8099 18.6087 15.7848 19.2839 15.4342 19.4873L17.4408 22.9475ZM16.815 23.5973C17.1445 23.1359 17.2577 23.0537 17.4408 22.9475L15.4342 19.4873C14.5786 19.9834 14.0727 20.5546 13.56 21.2723L16.815 23.5973ZM16.1678 25.0572C16.3676 24.3819 16.5706 23.9394 16.815 23.5973L13.56 21.2723C12.9624 22.109 12.6014 23.0122 12.3322 23.9223L16.1678 25.0572ZM15.9331 26.2195C15.9624 25.7779 16.0064 25.6026 16.1678 25.0572L12.3322 23.9223C12.1352 24.5881 11.9995 25.0866 11.9419 25.9544L15.9331 26.2195ZM24.9772 26.2668C24.9239 25.4117 24.7771 24.5646 24.5372 23.7538L20.7016 24.8886C20.853 25.4003 20.9496 25.9496 20.9849 26.5158L24.9772 26.2668ZM24.5372 23.7538C24.2297 22.7144 23.7697 21.7372 23.163 20.8878L19.9081 23.2127C20.2299 23.6633 20.5065 24.2294 20.7016 24.8886L24.5372 23.7538ZM23.163 20.8878C22.5564 20.0385 21.8014 19.3158 20.9167 18.8027L18.9101 22.263C19.2387 22.4535 19.5861 22.762 19.9081 23.2127L23.163 20.8878ZM20.9167 18.8027C20.0267 18.2866 19.033 18 18 18V22C18.2802 22 18.5868 22.0755 18.9101 22.263L20.9167 18.8027ZM18 18C16.967 18 15.9733 18.2866 15.0833 18.8027L17.0899 22.263C17.4132 22.0755 17.7198 22 18 22V18ZM15.0833 18.8027C14.1986 19.3158 13.4436 20.0385 12.837 20.8878L16.0919 23.2127C16.4139 22.762 16.7613 22.4535 17.0899 22.263L15.0833 18.8027ZM12.837 20.8878C12.2303 21.7372 11.7703 22.7144 11.4628 23.7538L15.2984 24.8886C15.4935 24.2294 15.7701 23.6633 16.0919 23.2127L12.837 20.8878ZM11.4628 23.7538C11.2229 24.5646 11.0761 25.4117 11.0228 26.2669L15.0151 26.5158C15.0504 25.9496 15.147 25.4003 15.2984 24.8886L11.4628 23.7538ZM11.0228 26.2669C11.0076 26.5104 11 26.755 11 27H15C15 26.838 15.005 26.6764 15.0151 26.5158L11.0228 26.2669ZM25 27C25 26.755 24.9924 26.5104 24.9772 26.2669L20.9849 26.5158C20.995 26.6764 21 26.838 21 27H25ZM13 29L23 29L23 25L13 25L13 29ZM22.0625 24.087H18V28.087H22.0625V24.087ZM18 24.087H13.9375V28.087H18V24.087Z" fill="black" mask="url(#path-8-inside-3_74_195)"/>
<circle cx="13" cy="36" r="4" stroke="black" stroke-width="2"/>
<circle cx="34" cy="36" r="4" stroke="black" stroke-width="2"/>
<mask id="path-12-inside-4_74_195" fill="white">
<path d="M26.0032 35.2876C26.0621 33.3372 26.9295 31.4851 28.4213 30.1244C29.9131 28.7638 31.9117 28.0017 33.993 28C36.0743 27.9983 38.0744 28.7571 39.5687 30.1153C41.063 31.4735 41.9338 33.3242 41.9964 35.2746L40.1465 35.3267C40.0984 33.8276 39.429 32.405 38.2804 31.361C37.1318 30.317 35.5944 29.7338 33.9946 29.7351C32.3948 29.7364 30.8585 30.3221 29.7119 31.368C28.5652 32.4139 27.8985 33.8376 27.8532 35.3368L26.0032 35.2876Z"/>
</mask>
<path d="M26.0032 35.2876C26.0621 33.3372 26.9295 31.4851 28.4213 30.1244C29.9131 28.7638 31.9117 28.0017 33.993 28C36.0743 27.9983 38.0744 28.7571 39.5687 30.1153C41.063 31.4735 41.9338 33.3242 41.9964 35.2746L40.1465 35.3267C40.0984 33.8276 39.429 32.405 38.2804 31.361C37.1318 30.317 35.5944 29.7338 33.9946 29.7351C32.3948 29.7364 30.8585 30.3221 29.7119 31.368C28.5652 32.4139 27.8985 33.8376 27.8532 35.3368L26.0032 35.2876Z" fill="#D9D9D9" stroke="black" stroke-width="4" mask="url(#path-12-inside-4_74_195)"/>
<mask id="path-13-inside-5_74_195" fill="white">
<path d="M5.00321 35.2876C5.06214 33.3372 5.92954 31.4851 7.4213 30.1244C8.91306 28.7638 10.9117 28.0017 12.993 28C15.0743 27.9983 17.0744 28.7571 18.5687 30.1153C20.063 31.4735 20.9338 33.3242 20.9964 35.2746L19.1465 35.3267C19.0984 33.8276 18.429 32.405 17.2804 31.361C16.1318 30.317 14.5944 29.7338 12.9946 29.7351C11.3948 29.7364 9.85854 30.3221 8.71189 31.368C7.56524 32.4139 6.8985 33.8376 6.85321 35.3368L5.00321 35.2876Z"/>
</mask>
<path d="M5.00321 35.2876C5.06214 33.3372 5.92954 31.4851 7.4213 30.1244C8.91306 28.7638 10.9117 28.0017 12.993 28C15.0743 27.9983 17.0744 28.7571 18.5687 30.1153C20.063 31.4735 20.9338 33.3242 20.9964 35.2746L19.1465 35.3267C19.0984 33.8276 18.429 32.405 17.2804 31.361C16.1318 30.317 14.5944 29.7338 12.9946 29.7351C11.3948 29.7364 9.85854 30.3221 8.71189 31.368C7.56524 32.4139 6.8985 33.8376 6.85321 35.3368L5.00321 35.2876Z" fill="#D9D9D9" stroke="black" stroke-width="4" mask="url(#path-13-inside-5_74_195)"/>
<line x1="19" y1="36" x2="28" y2="36" stroke="black" stroke-width="2"/>
<line x1="40" y1="36" x2="47" y2="36" stroke="black" stroke-width="2"/>
<line x1="34" y1="20" x2="47" y2="20" stroke="black" stroke-width="2"/>
<line x1="1" y1="36" x2="7" y2="36" stroke="black" stroke-width="2"/>
<line x1="1" y1="1" x2="35" y2="1" stroke="black" stroke-width="2"/>
<line x1="34" y1="21" x2="34" y2="1" stroke="black" stroke-width="2"/>
<line x1="1" y1="37" x2="1" stroke="black" stroke-width="2"/>
<line x1="46" y1="37" x2="46" y2="20" stroke="black" stroke-width="2"/>
</svg>
