<svg width="32" height="46" viewBox="0 0 32 46" fill="none" xmlns="http://www.w3.org/2000/svg">
<circle cx="15.5" cy="12.5" r="11.5" stroke="black" stroke-width="2"/>
<path d="M29.9355 44.5H30.4689L30.4344 43.9677C30.2931 41.7822 29.9245 39.6394 29.3407 37.6136C28.5768 34.9625 27.4642 32.5796 26.0823 30.5931C24.7003 28.6064 23.0872 27.0707 21.3555 26.0396C19.6283 25.0112 17.8106 24.5 16 24.5C14.1894 24.5 12.3717 25.0112 10.6445 26.0396C8.9128 27.0707 7.29974 28.6064 5.91765 30.5931C4.53577 32.5796 3.42318 34.9626 2.65928 37.6136C2.07554 39.6394 1.70691 41.7822 1.56557 43.9677L1.53115 44.5H2.06453L29.9355 44.5ZM30.3016 37.3367C30.9171 39.4728 31.3007 41.7305 31.4403 44.0303C31.47 44.5186 31.4886 45.0088 31.4962 45.5L0.503839 45.5C0.511383 45.0088 0.530034 44.5186 0.559686 44.0303C0.699333 41.7305 1.08288 39.4728 1.69838 37.3367C2.48906 34.5927 3.64562 32.1081 5.09674 30.0221C6.54793 27.936 8.2615 26.2947 10.1329 25.1804C12.0027 24.067 13.9957 23.5 16 23.5C18.0043 23.5 19.9973 24.067 21.8671 25.1804C23.7385 26.2947 25.4521 27.936 26.9033 30.0221C28.3544 32.1081 29.5109 34.5927 30.3016 37.3367Z" fill="black" stroke="black"/>
</svg>
