<svg width="47" height="43" viewBox="0 0 47 43" fill="none" xmlns="http://www.w3.org/2000/svg">
<circle cx="17.75" cy="9.25" r="5.25" stroke="black" stroke-width="2"/>
<mask id="path-2-inside-1_73_152" fill="white">
<path fill-rule="evenodd" clip-rule="evenodd" d="M24.5 24.5C24.4304 23.4245 24.2867 22.871 24 21.876C23.6247 20.5737 23.1736 19.4077 22.5 18.4393C21.8262 17.4708 21.3309 16.9948 20.5 16.5C19.6721 16.007 18.8569 15.5 18 15.5C17.1431 15.5 16.3279 16.007 15.5 16.5C14.6691 16.9948 14.1738 17.5315 13.5 18.5C12.8264 19.4683 12.3753 20.5737 12 21.876C11.7133 22.871 11.5696 23.4245 11.5 24.5H18H24.5ZM25.9697 25C25.8988 23.8325 25.7041 22.6855 25.391 21.5991C24.989 20.2039 24.3997 18.9361 23.6569 17.8683C22.914 16.8004 22.0321 15.9533 21.0615 15.3754C20.0909 14.7975 19.0506 14.5 18 14.5C16.9494 14.5 15.9091 14.7975 14.9385 15.3754C13.9679 15.9533 13.086 16.8004 12.3431 17.8683C11.6003 18.9361 11.011 20.2039 10.609 21.5991C10.2959 22.6855 10.1012 23.8325 10.0303 25C10.0101 25.332 10 25.6656 10 26L26 26C26 25.6656 25.9899 25.332 25.9697 25Z"/>
</mask>
<path fill-rule="evenodd" clip-rule="evenodd" d="M24.5 24.5C24.4304 23.4245 24.2867 22.871 24 21.876C23.6247 20.5737 23.1736 19.4077 22.5 18.4393C21.8262 17.4708 21.3309 16.9948 20.5 16.5C19.6721 16.007 18.8569 15.5 18 15.5C17.1431 15.5 16.3279 16.007 15.5 16.5C14.6691 16.9948 14.1738 17.5315 13.5 18.5C12.8264 19.4683 12.3753 20.5737 12 21.876C11.7133 22.871 11.5696 23.4245 11.5 24.5H18H24.5ZM25.9697 25C25.8988 23.8325 25.7041 22.6855 25.391 21.5991C24.989 20.2039 24.3997 18.9361 23.6569 17.8683C22.914 16.8004 22.0321 15.9533 21.0615 15.3754C20.0909 14.7975 19.0506 14.5 18 14.5C16.9494 14.5 15.9091 14.7975 14.9385 15.3754C13.9679 15.9533 13.086 16.8004 12.3431 17.8683C11.6003 18.9361 11.011 20.2039 10.609 21.5991C10.2959 22.6855 10.1012 23.8325 10.0303 25C10.0101 25.332 10 25.6656 10 26L26 26C26 25.6656 25.9899 25.332 25.9697 25Z" fill="black"/>
<path d="M24 21.876L22.0782 22.4298L22.0782 22.4298L24 21.876ZM24.5 24.5V26.5H26.6335L26.4958 24.3709L24.5 24.5ZM22.5 18.4393L24.1418 17.2972L24.1418 17.2972L22.5 18.4393ZM20.5 16.5L19.4768 18.2184L19.4768 18.2184L20.5 16.5ZM18 15.5L18 17.5L18 17.5L18 15.5ZM15.5 16.5L14.4768 14.7816L14.4768 14.7816L15.5 16.5ZM13.5 18.5L15.1418 19.6421L15.1418 19.6421L13.5 18.5ZM12 21.876L10.0782 21.3223L10.0782 21.3223L12 21.876ZM11.5 24.5L9.50417 24.3709L9.36648 26.5H11.5V24.5ZM25.9697 25L27.966 24.8788L27.966 24.8788L25.9697 25ZM25.391 21.5991L23.4692 22.1529L23.4692 22.1529L25.391 21.5991ZM23.6569 17.8683L22.015 19.0104L22.015 19.0104L23.6569 17.8683ZM21.0615 15.3754L22.0847 13.6569L22.0847 13.6569L21.0615 15.3754ZM14.9385 15.3754L15.9617 17.0938L15.9617 17.0938L14.9385 15.3754ZM10.609 21.5991L8.68716 21.0454L8.68716 21.0454L10.609 21.5991ZM10.0303 25L12.0266 25.1212L12.0266 25.1212L10.0303 25ZM10 26H8V28L10 28L10 26ZM26 26L26 28L28 28V26H26ZM22.0782 22.4298C22.3478 23.3655 22.448 23.7613 22.5042 24.6291L26.4958 24.3709C26.4128 23.0877 26.2255 22.3764 25.9218 21.3223L22.0782 22.4298ZM20.8582 19.5815C21.349 20.287 21.7269 21.2107 22.0782 22.4298L25.9218 21.3223C25.5226 19.9368 24.9983 18.5284 24.1418 17.2972L20.8582 19.5815ZM19.4768 18.2184C20.02 18.5419 20.3161 18.8023 20.8582 19.5815L24.1418 17.2972C23.3363 16.1393 22.6418 15.4476 21.5232 14.7816L19.4768 18.2184ZM18 17.5C18.035 17.5 18.1583 17.5109 18.4332 17.6358C18.7237 17.7679 19.0253 17.9496 19.4768 18.2184L21.5232 14.7816C21.1467 14.5574 20.6268 14.2391 20.0885 13.9944C19.5347 13.7427 18.8219 13.5 18 13.5L18 17.5ZM16.5232 18.2184C16.9747 17.9496 17.2763 17.7679 17.5668 17.6358C17.8417 17.5109 17.965 17.5 18 17.5V13.5C17.1781 13.5 16.4653 13.7427 15.9115 13.9944C15.3732 14.2391 14.8533 14.5574 14.4768 14.7816L16.5232 18.2184ZM15.1418 19.6421C15.7276 18.8001 16.0291 18.5127 16.5232 18.2184L14.4768 14.7816C13.3091 15.4769 12.62 16.2628 11.8582 17.3579L15.1418 19.6421ZM13.9218 22.4298C14.2642 21.2417 14.6396 20.3641 15.1418 19.6421L11.8582 17.3579C11.0132 18.5726 10.4863 19.9058 10.0782 21.3223L13.9218 22.4298ZM13.4958 24.6291C13.552 23.7613 13.6522 23.3655 13.9218 22.4298L10.0782 21.3223C9.77445 22.3764 9.58716 23.0877 9.50417 24.3709L13.4958 24.6291ZM27.966 24.8788C27.8866 23.5706 27.6681 22.2782 27.3128 21.0454L23.4692 22.1529C23.74 23.0927 23.911 24.0944 23.9734 25.1212L27.966 24.8788ZM27.3128 21.0454C26.8572 19.4642 26.18 17.9931 25.2987 16.7261L22.015 19.0104C22.6194 19.8792 23.1208 20.9436 23.4692 22.1529L27.3128 21.0454ZM25.2987 16.7261C24.4176 15.4596 23.3346 14.4012 22.0847 13.6569L20.0383 17.0938C20.7295 17.5054 21.4104 18.1412 22.015 19.0104L25.2987 16.7261ZM22.0847 13.6569C20.8287 12.9091 19.4379 12.5 18 12.5V16.5C18.6633 16.5 19.353 16.6858 20.0383 17.0938L22.0847 13.6569ZM18 12.5C16.5621 12.5 15.1713 12.9091 13.9153 13.6569L15.9617 17.0938C16.647 16.6858 17.3367 16.5 18 16.5V12.5ZM13.9153 13.6569C12.6654 14.4012 11.5824 15.4596 10.7013 16.7261L13.985 19.0104C14.5896 18.1412 15.2705 17.5054 15.9617 17.0938L13.9153 13.6569ZM10.7013 16.7261C9.81999 17.9931 9.14277 19.4642 8.68716 21.0454L12.5308 22.1529C12.8792 20.9436 13.3806 19.8792 13.985 19.0104L10.7013 16.7261ZM8.68716 21.0454C8.33192 22.2782 8.11341 23.5706 8.03398 24.8788L12.0266 25.1212C12.089 24.0944 12.26 23.0927 12.5308 22.1529L8.68716 21.0454ZM8.03398 24.8788C8.01137 25.2511 8 25.6252 8 26H12C12 25.7061 12.0089 25.4128 12.0266 25.1212L8.03398 24.8788ZM28 26C28 25.6252 27.9886 25.2511 27.966 24.8788L23.9734 25.1212C23.9911 25.4128 24 25.7061 24 26H28ZM10 28L26 28L26 24L10 24L10 28ZM24.5 22.5H18V26.5H24.5V22.5ZM18 22.5H11.5V26.5H18V22.5Z" fill="black" mask="url(#path-2-inside-1_73_152)"/>
<circle cx="13" cy="36" r="4" stroke="black" stroke-width="2"/>
<circle cx="34" cy="36" r="4" stroke="black" stroke-width="2"/>
<mask id="path-6-inside-2_73_152" fill="white">
<path d="M26.0032 35.2876C26.0621 33.3372 26.9295 31.4851 28.4213 30.1244C29.9131 28.7638 31.9117 28.0017 33.993 28C36.0743 27.9983 38.0744 28.7571 39.5687 30.1153C41.063 31.4735 41.9338 33.3242 41.9964 35.2746L40.1465 35.3267C40.0984 33.8276 39.429 32.405 38.2804 31.361C37.1318 30.317 35.5944 29.7338 33.9946 29.7351C32.3948 29.7364 30.8585 30.3221 29.7119 31.368C28.5652 32.4139 27.8985 33.8376 27.8532 35.3368L26.0032 35.2876Z"/>
</mask>
<path d="M26.0032 35.2876C26.0621 33.3372 26.9295 31.4851 28.4213 30.1244C29.9131 28.7638 31.9117 28.0017 33.993 28C36.0743 27.9983 38.0744 28.7571 39.5687 30.1153C41.063 31.4735 41.9338 33.3242 41.9964 35.2746L40.1465 35.3267C40.0984 33.8276 39.429 32.405 38.2804 31.361C37.1318 30.317 35.5944 29.7338 33.9946 29.7351C32.3948 29.7364 30.8585 30.3221 29.7119 31.368C28.5652 32.4139 27.8985 33.8376 27.8532 35.3368L26.0032 35.2876Z" fill="#D9D9D9" stroke="black" stroke-width="4" mask="url(#path-6-inside-2_73_152)"/>
<mask id="path-7-inside-3_73_152" fill="white">
<path d="M5.00321 35.2876C5.06214 33.3372 5.92954 31.4851 7.4213 30.1244C8.91306 28.7638 10.9117 28.0017 12.993 28C15.0743 27.9983 17.0744 28.7571 18.5687 30.1153C20.063 31.4735 20.9338 33.3242 20.9964 35.2746L19.1465 35.3267C19.0984 33.8276 18.429 32.405 17.2804 31.361C16.1318 30.317 14.5944 29.7338 12.9946 29.7351C11.3948 29.7364 9.85854 30.3221 8.71189 31.368C7.56524 32.4139 6.8985 33.8376 6.85321 35.3368L5.00321 35.2876Z"/>
</mask>
<path d="M5.00321 35.2876C5.06214 33.3372 5.92954 31.4851 7.4213 30.1244C8.91306 28.7638 10.9117 28.0017 12.993 28C15.0743 27.9983 17.0744 28.7571 18.5687 30.1153C20.063 31.4735 20.9338 33.3242 20.9964 35.2746L19.1465 35.3267C19.0984 33.8276 18.429 32.405 17.2804 31.361C16.1318 30.317 14.5944 29.7338 12.9946 29.7351C11.3948 29.7364 9.85854 30.3221 8.71189 31.368C7.56524 32.4139 6.8985 33.8376 6.85321 35.3368L5.00321 35.2876Z" fill="#D9D9D9" stroke="black" stroke-width="4" mask="url(#path-7-inside-3_73_152)"/>
<line x1="19" y1="36" x2="28" y2="36" stroke="black" stroke-width="2"/>
<line x1="40" y1="36" x2="47" y2="36" stroke="black" stroke-width="2"/>
<line x1="34" y1="20" x2="47" y2="20" stroke="black" stroke-width="2"/>
<line x1="1" y1="36" x2="7" y2="36" stroke="black" stroke-width="2"/>
<line x1="1" y1="1" x2="35" y2="1" stroke="black" stroke-width="2"/>
<line x1="34" y1="21" x2="34" y2="1" stroke="black" stroke-width="2"/>
<line x1="1" y1="37" x2="1" stroke="black" stroke-width="2"/>
<line x1="46" y1="37" x2="46" y2="20" stroke="black" stroke-width="2"/>
</svg>
