<svg width="46" height="30" viewBox="0 0 46 30" fill="none" xmlns="http://www.w3.org/2000/svg">
<line y1="1" x2="46" y2="1" stroke="black" stroke-width="2"/>
<path d="M4 7H23" stroke="black" stroke-width="2" stroke-linecap="round"/>
<path d="M4 21H23" stroke="black" stroke-width="2" stroke-linecap="round"/>
<path d="M4 14H23" stroke="black" stroke-width="2" stroke-linecap="round"/>
<line x1="45" y1="28" x2="45" y2="2" stroke="black" stroke-width="2"/>
<line x1="1" y1="28" x2="1" y2="2" stroke="black" stroke-width="2"/>
<line y1="29" x2="46" y2="29" stroke="black" stroke-width="2"/>
<circle cx="34" cy="11" r="6" stroke="black" stroke-width="2"/>
<path d="M30 26C30 26.5523 30.4477 27 31 27C31.5523 27 32 26.5523 32 26H30ZM30 16V26H32V16H30Z" fill="black"/>
<path d="M34 22L31 26" stroke="black" stroke-width="2" stroke-linecap="round"/>
<path d="M34 22L37 26" stroke="black" stroke-width="2" stroke-linecap="round"/>
<path d="M36 26C36 26.5523 36.4477 27 37 27C37.5523 27 38 26.5523 38 26H36ZM36 16V26H38V16H36Z" fill="black"/>
<circle cx="34" cy="11" r="2" stroke="black" stroke-width="2"/>
</svg>
