<svg width="49" height="46" viewBox="0 0 49 46" fill="none" xmlns="http://www.w3.org/2000/svg">
<path d="M14.1854 1.88181L23.2079 10.35" stroke="white" stroke-width="2" stroke-linecap="round"/>
<path d="M13.9162 1.64206L6.16546 9.4091" stroke="white" stroke-width="2" stroke-linecap="round"/>
<path d="M23.2079 10.35L18.1954 15.0546" stroke="white" stroke-width="2" stroke-linecap="round"/>
<path d="M18.1954 15.0545V15.0545C20.1203 20.4747 24.2654 24.9599 29.7112 27.5156L31.2278 28.2273" stroke="white" stroke-width="2" stroke-linecap="round"/>
<path d="M6.16544 9.40909V9.40909C11.1916 21.9711 20.8923 32.4161 33.4673 38.8059L37.0505 40.6266" stroke="white" stroke-width="2" stroke-linecap="round"/>
<path d="M36.2403 23.5227L45.2628 31.9909" stroke="white" stroke-width="2" stroke-linecap="round"/>
<path d="M36.2403 23.5227L31.2278 28.2273" stroke="white" stroke-width="2" stroke-linecap="round"/>
<path d="M45.216 31.951L37.2428 40.4591" stroke="white" stroke-width="2" stroke-linecap="round"/>
<path d="M30.2253 8.46817V8.46817C34.8484 9.33598 38.5773 12.5385 39.9076 16.7837L40.2503 17.8773" stroke="white" stroke-width="2" stroke-linecap="round"/>
<path d="M33.2328 2.82273V2.82273C38.769 4.44661 43.2325 8.32275 45.3867 13.3772L45.9925 14.7985" stroke="white" stroke-width="2" stroke-linecap="round"/>
</svg>
