<svg width="46" height="46" viewBox="0 0 46 46" fill="none" xmlns="http://www.w3.org/2000/svg">
<circle cx="10.4559" cy="8.45588" r="7.45588" stroke="black" stroke-width="2"/>
<mask id="path-2-inside-1_70_54" fill="white">
<path fill-rule="evenodd" clip-rule="evenodd" d="M20.2505 29.7647C20.1564 28.3096 19.911 26.8842 19.5231 25.5382C19.0154 23.7762 18.2777 22.1986 17.3663 20.8885C16.4547 19.5782 15.3975 18.575 14.2733 17.9057C13.1532 17.2387 11.9829 16.9118 10.8235 16.9118C9.66416 16.9118 8.49386 17.2387 7.37372 17.9057C6.24952 18.575 5.19234 19.5782 4.28077 20.8885C3.36939 22.1986 2.63163 23.7762 2.12394 25.5382C1.73607 26.8842 1.4907 28.3096 1.39659 29.7647L20.2505 29.7647ZM21.6061 29.7647C21.5101 28.1852 21.2467 26.6333 20.8232 25.1636C20.2792 23.2759 19.482 21.5607 18.4769 20.1159C17.4719 18.6711 16.2787 17.5251 14.9655 16.7432C13.6523 15.9613 12.2449 15.5588 10.8235 15.5588C9.40216 15.5588 7.99471 15.9613 6.68154 16.7432C5.36837 17.5251 4.1752 18.6711 3.17014 20.1159C2.16508 21.5607 1.36783 23.2759 0.823892 25.1636C0.400388 26.6333 0.136909 28.1852 0.0409976 29.7647C0.0137237 30.2139 0 30.6653 0 31.1177L21.6471 31.1177C21.6471 30.6653 21.6333 30.2139 21.6061 29.7647Z"/>
</mask>
<path fill-rule="evenodd" clip-rule="evenodd" d="M20.2505 29.7647C20.1564 28.3096 19.911 26.8842 19.5231 25.5382C19.0154 23.7762 18.2777 22.1986 17.3663 20.8885C16.4547 19.5782 15.3975 18.575 14.2733 17.9057C13.1532 17.2387 11.9829 16.9118 10.8235 16.9118C9.66416 16.9118 8.49386 17.2387 7.37372 17.9057C6.24952 18.575 5.19234 19.5782 4.28077 20.8885C3.36939 22.1986 2.63163 23.7762 2.12394 25.5382C1.73607 26.8842 1.4907 28.3096 1.39659 29.7647L20.2505 29.7647ZM21.6061 29.7647C21.5101 28.1852 21.2467 26.6333 20.8232 25.1636C20.2792 23.2759 19.482 21.5607 18.4769 20.1159C17.4719 18.6711 16.2787 17.5251 14.9655 16.7432C13.6523 15.9613 12.2449 15.5588 10.8235 15.5588C9.40216 15.5588 7.99471 15.9613 6.68154 16.7432C5.36837 17.5251 4.1752 18.6711 3.17014 20.1159C2.16508 21.5607 1.36783 23.2759 0.823892 25.1636C0.400388 26.6333 0.136909 28.1852 0.0409976 29.7647C0.0137237 30.2139 0 30.6653 0 31.1177L21.6471 31.1177C21.6471 30.6653 21.6333 30.2139 21.6061 29.7647Z" fill="black"/>
<path d="M19.5231 25.5382L17.6013 26.0919L17.6013 26.0919L19.5231 25.5382ZM20.2505 29.7647L20.2505 31.7647L22.384 31.7647L22.2463 29.6356L20.2505 29.7647ZM17.3663 20.8885L19.0081 19.7464L19.0081 19.7464L17.3663 20.8885ZM14.2733 17.9057L13.2501 19.6241L13.2501 19.6241L14.2733 17.9057ZM10.8235 16.9118L10.8235 18.9118L10.8235 18.9118L10.8235 16.9118ZM7.37372 17.9057L6.3505 16.1872L6.3505 16.1872L7.37372 17.9057ZM4.28077 20.8885L5.92258 22.0307L5.92258 22.0307L4.28077 20.8885ZM2.12394 25.5382L0.202131 24.9844L0.20213 24.9844L2.12394 25.5382ZM1.39659 29.7647L-0.599239 29.6356L-0.736933 31.7647L1.39659 31.7647L1.39659 29.7647ZM21.6061 29.7647L23.6024 29.6435L23.6024 29.6435L21.6061 29.7647ZM20.8232 25.1636L18.9014 25.7173L18.9014 25.7173L20.8232 25.1636ZM18.4769 20.1159L16.8351 21.258L16.8351 21.258L18.4769 20.1159ZM14.9655 16.7432L15.9887 15.0247L15.9887 15.0247L14.9655 16.7432ZM6.68154 16.7432L7.70476 18.4616L7.70476 18.4616L6.68154 16.7432ZM0.823892 25.1636L-1.09792 24.6098L-1.09792 24.6098L0.823892 25.1636ZM0.0409976 29.7647L2.03732 29.8859L2.03732 29.8859L0.0409976 29.7647ZM0 31.1177H-2V33.1177L1.19209e-07 33.1177L0 31.1177ZM21.6471 31.1177L21.6471 33.1177L23.6471 33.1177V31.1177H21.6471ZM17.6013 26.0919C17.9477 27.2941 18.1695 28.5767 18.2546 29.8938L22.2463 29.6356C22.1433 28.0425 21.8743 26.4744 21.4449 24.9844L17.6013 26.0919ZM15.7245 22.0307C16.4974 23.1417 17.1472 24.5159 17.6013 26.0919L21.4449 24.9844C20.8837 23.0365 20.0579 21.2556 19.0081 19.7464L15.7245 22.0307ZM13.2501 19.6241C14.095 20.1272 14.9512 20.919 15.7245 22.0307L19.0081 19.7464C17.9583 18.2373 16.7 17.0229 15.2966 16.1872L13.2501 19.6241ZM10.8235 18.9118C11.5957 18.9118 12.4155 19.1271 13.2501 19.6241L15.2966 16.1872C13.8909 15.3503 12.3701 14.9118 10.8235 14.9118L10.8235 18.9118ZM8.39693 19.6241C9.23159 19.1271 10.0513 18.9118 10.8235 18.9118V14.9118C9.277 14.9118 7.75613 15.3503 6.3505 16.1872L8.39693 19.6241ZM5.92258 22.0307C6.69589 20.919 7.55203 20.1272 8.39693 19.6241L6.3505 16.1872C4.94702 17.0229 3.68879 18.2373 2.63896 19.7464L5.92258 22.0307ZM4.04575 26.0919C4.49986 24.516 5.14967 23.1417 5.92258 22.0307L2.63896 19.7464C1.58912 21.2556 0.763401 23.0365 0.202131 24.9844L4.04575 26.0919ZM3.39242 29.8938C3.4776 28.5767 3.69935 27.2941 4.04575 26.0919L0.20213 24.9844C-0.227212 26.4744 -0.496204 28.0425 -0.599239 29.6356L3.39242 29.8938ZM23.6024 29.6435C23.4979 27.9233 23.2107 26.226 22.745 24.6098L18.9014 25.7173C19.2826 27.0406 19.5224 28.4471 19.6097 29.8859L23.6024 29.6435ZM22.745 24.6098C22.1475 22.5362 21.2623 20.6176 20.1187 18.9738L16.8351 21.258C17.7017 22.5038 18.411 24.0156 18.9014 25.7173L22.745 24.6098ZM20.1187 18.9738C18.9755 17.3303 17.5813 15.973 15.9887 15.0247L13.9423 18.4616C14.9761 19.0772 15.9683 20.0119 16.8351 21.258L20.1187 18.9738ZM15.9887 15.0247C14.3902 14.0729 12.6322 13.5588 10.8235 13.5588V17.5588C11.8576 17.5588 12.9145 17.8496 13.9423 18.4616L15.9887 15.0247ZM10.8235 13.5588C9.01486 13.5588 7.25685 14.0729 5.65833 15.0247L7.70476 18.4616C8.73258 17.8496 9.78946 17.5588 10.8235 17.5588V13.5588ZM5.65833 15.0247C4.0658 15.973 2.67159 17.3303 1.52833 18.9738L4.81195 21.258C5.6788 20.0119 6.67095 19.0772 7.70476 18.4616L5.65833 15.0247ZM1.52833 18.9738C0.384794 20.6176 -0.50041 22.5362 -1.09792 24.6098L2.7457 25.7173C3.23606 24.0156 3.94537 22.5038 4.81195 21.258L1.52833 18.9738ZM-1.09792 24.6098C-1.56363 26.226 -1.85087 27.9233 -1.95533 29.6435L2.03732 29.8859C2.12469 28.4471 2.36441 27.0406 2.7457 25.7173L-1.09792 24.6098ZM-1.95533 29.6435C-1.98505 30.133 -2 30.6249 -2 31.1177H2C2 30.7057 2.0125 30.2947 2.03732 29.8859L-1.95533 29.6435ZM23.6471 31.1177C23.6471 30.6249 23.6321 30.133 23.6024 29.6435L19.6097 29.8859C19.6346 30.2947 19.6471 30.7057 19.6471 31.1177H23.6471ZM20.2505 27.7647L1.39659 27.7647L1.39659 31.7647L20.2505 31.7647L20.2505 27.7647ZM1.19209e-07 33.1177L21.6471 33.1177L21.6471 29.1177L-1.19209e-07 29.1177L1.19209e-07 33.1177Z" fill="black" mask="url(#path-2-inside-1_70_54)"/>
<circle cx="34.8382" cy="8.45588" r="7.45588" stroke="black" stroke-width="2"/>
<mask id="path-5-inside-2_70_54" fill="white">
<path fill-rule="evenodd" clip-rule="evenodd" d="M44.6034 29.7647C44.5093 28.3096 44.264 26.8842 43.8761 25.5382C43.3684 23.7762 42.6306 22.1986 41.7192 20.8885C40.8077 19.5782 39.7505 18.575 38.6263 17.9057C37.5062 17.2387 36.3359 16.9118 35.1765 16.9118C34.0171 16.9118 32.8468 17.2387 31.7267 17.9057C30.6025 18.575 29.5453 19.5782 28.6337 20.8885C27.7224 22.1986 26.9846 23.7762 26.4769 25.5382C26.089 26.8842 25.8437 28.3096 25.7496 29.7647L44.6034 29.7647ZM45.959 29.7647C45.8631 28.1852 45.5996 26.6333 45.1761 25.1636C44.6322 23.2759 43.8349 21.5607 42.8299 20.1159C41.8248 18.6711 40.6317 17.5251 39.3185 16.7432C38.0053 15.9613 36.5979 15.5588 35.1765 15.5588C33.7551 15.5588 32.3477 15.9613 31.0345 16.7432C29.7213 17.5251 28.5282 18.6711 27.5231 20.1159C26.518 21.5607 25.7208 23.2759 25.1769 25.1636C24.7534 26.6333 24.4899 28.1852 24.394 29.7647C24.3667 30.2139 24.353 30.6653 24.353 31.1177L46 31.1177C46 30.6653 45.9863 30.2139 45.959 29.7647Z"/>
</mask>
<path fill-rule="evenodd" clip-rule="evenodd" d="M44.6034 29.7647C44.5093 28.3096 44.264 26.8842 43.8761 25.5382C43.3684 23.7762 42.6306 22.1986 41.7192 20.8885C40.8077 19.5782 39.7505 18.575 38.6263 17.9057C37.5062 17.2387 36.3359 16.9118 35.1765 16.9118C34.0171 16.9118 32.8468 17.2387 31.7267 17.9057C30.6025 18.575 29.5453 19.5782 28.6337 20.8885C27.7224 22.1986 26.9846 23.7762 26.4769 25.5382C26.089 26.8842 25.8437 28.3096 25.7496 29.7647L44.6034 29.7647ZM45.959 29.7647C45.8631 28.1852 45.5996 26.6333 45.1761 25.1636C44.6322 23.2759 43.8349 21.5607 42.8299 20.1159C41.8248 18.6711 40.6317 17.5251 39.3185 16.7432C38.0053 15.9613 36.5979 15.5588 35.1765 15.5588C33.7551 15.5588 32.3477 15.9613 31.0345 16.7432C29.7213 17.5251 28.5282 18.6711 27.5231 20.1159C26.518 21.5607 25.7208 23.2759 25.1769 25.1636C24.7534 26.6333 24.4899 28.1852 24.394 29.7647C24.3667 30.2139 24.353 30.6653 24.353 31.1177L46 31.1177C46 30.6653 45.9863 30.2139 45.959 29.7647Z" fill="black"/>
<path d="M43.8761 25.5382L41.9543 26.0919L41.9543 26.0919L43.8761 25.5382ZM44.6034 29.7647L44.6034 31.7647L46.737 31.7647L46.5993 29.6356L44.6034 29.7647ZM41.7192 20.8885L43.3611 19.7464L43.3611 19.7464L41.7192 20.8885ZM38.6263 17.9057L37.6031 19.6241L37.6031 19.6241L38.6263 17.9057ZM35.1765 16.9118L35.1765 18.9118L35.1765 18.9118L35.1765 16.9118ZM31.7267 17.9057L30.7035 16.1872L30.7035 16.1872L31.7267 17.9057ZM28.6337 20.8885L30.2756 22.0307L30.2756 22.0307L28.6337 20.8885ZM26.4769 25.5382L24.5551 24.9844L24.5551 24.9844L26.4769 25.5382ZM25.7496 29.7647L23.7537 29.6356L23.616 31.7647L25.7496 31.7647L25.7496 29.7647ZM45.959 29.7647L47.9553 29.6435L47.9553 29.6435L45.959 29.7647ZM45.1761 25.1636L43.2543 25.7173L43.2543 25.7173L45.1761 25.1636ZM42.8299 20.1159L41.1881 21.258L41.1881 21.258L42.8299 20.1159ZM39.3185 16.7432L40.3417 15.0247L40.3417 15.0247L39.3185 16.7432ZM31.0345 16.7432L32.0577 18.4616L32.0577 18.4616L31.0345 16.7432ZM25.1769 25.1636L23.2551 24.6098L23.2551 24.6098L25.1769 25.1636ZM24.394 29.7647L26.3903 29.8859L26.3903 29.8859L24.394 29.7647ZM24.353 31.1177H22.353V33.1177L24.353 33.1177L24.353 31.1177ZM46 31.1177L46 33.1177L48 33.1177V31.1177H46ZM41.9543 26.0919C42.3007 27.2941 42.5224 28.5767 42.6076 29.8938L46.5993 29.6356C46.4962 28.0425 46.2272 26.4744 45.7979 24.9844L41.9543 26.0919ZM40.0774 22.0307C40.8504 23.1417 41.5002 24.5159 41.9543 26.0919L45.7979 24.9844C45.2366 23.0365 44.4109 21.2556 43.3611 19.7464L40.0774 22.0307ZM37.6031 19.6241C38.448 20.1272 39.3041 20.919 40.0774 22.0307L43.3611 19.7464C42.3112 18.2373 41.053 17.0229 39.6495 16.1872L37.6031 19.6241ZM35.1765 18.9118C35.9487 18.9118 36.7684 19.1271 37.6031 19.6241L39.6495 16.1872C38.2439 15.3503 36.723 14.9118 35.1765 14.9118L35.1765 18.9118ZM32.7499 19.6241C33.5846 19.1271 34.4043 18.9118 35.1765 18.9118V14.9118C33.63 14.9118 32.1091 15.3503 30.7035 16.1872L32.7499 19.6241ZM30.2756 22.0307C31.0489 20.919 31.905 20.1272 32.7499 19.6241L30.7035 16.1872C29.3 17.0229 28.0418 18.2373 26.9919 19.7464L30.2756 22.0307ZM28.3987 26.0919C28.8528 24.516 29.5026 23.1417 30.2756 22.0307L26.9919 19.7464C25.9421 21.2556 25.1164 23.0365 24.5551 24.9844L28.3987 26.0919ZM27.7454 29.8938C27.8306 28.5767 28.0523 27.2941 28.3987 26.0919L24.5551 24.9844C24.1258 26.4744 23.8568 28.0425 23.7537 29.6356L27.7454 29.8938ZM47.9553 29.6435C47.8509 27.9233 47.5637 26.226 47.0979 24.6098L43.2543 25.7173C43.6356 27.0406 43.8753 28.4471 43.9627 29.8859L47.9553 29.6435ZM47.0979 24.6098C46.5004 22.5362 45.6152 20.6176 44.4717 18.9738L41.1881 21.258C42.0547 22.5038 42.764 24.0156 43.2543 25.7173L47.0979 24.6098ZM44.4717 18.9738C43.3284 17.3303 41.9342 15.973 40.3417 15.0247L38.2953 18.4616C39.3291 19.0772 40.3212 20.0119 41.1881 21.258L44.4717 18.9738ZM40.3417 15.0247C38.7432 14.0729 36.9852 13.5588 35.1765 13.5588V17.5588C36.2106 17.5588 37.2674 17.8496 38.2953 18.4616L40.3417 15.0247ZM35.1765 13.5588C33.3678 13.5588 31.6098 14.0729 30.0113 15.0247L32.0577 18.4616C33.0855 17.8496 34.1424 17.5588 35.1765 17.5588V13.5588ZM30.0113 15.0247C28.4188 15.973 27.0246 17.3303 25.8813 18.9738L29.1649 21.258C30.0318 20.0119 31.0239 19.0772 32.0577 18.4616L30.0113 15.0247ZM25.8813 18.9738C24.7378 20.6176 23.8526 22.5362 23.2551 24.6098L27.0987 25.7173C27.589 24.0156 28.2983 22.5038 29.1649 21.258L25.8813 18.9738ZM23.2551 24.6098C22.7893 26.226 22.5021 27.9233 22.3976 29.6435L26.3903 29.8859C26.4777 28.4471 26.7174 27.0406 27.0987 25.7173L23.2551 24.6098ZM22.3976 29.6435C22.3679 30.133 22.353 30.6249 22.353 31.1177H26.353C26.353 30.7057 26.3655 30.2947 26.3903 29.8859L22.3976 29.6435ZM48 31.1177C48 30.6249 47.9851 30.133 47.9553 29.6435L43.9627 29.8859C43.9875 30.2947 44 30.7057 44 31.1177H48ZM44.6034 27.7647L25.7496 27.7647L25.7496 31.7647L44.6034 31.7647L44.6034 27.7647ZM24.353 33.1177L46 33.1177L46 29.1177L24.353 29.1177L24.353 33.1177Z" fill="black" mask="url(#path-5-inside-2_70_54)"/>
<circle cx="22.6618" cy="23.3382" r="7.45588" fill="white" stroke="black" stroke-width="2"/>
<mask id="path-8-inside-3_70_54" fill="white">
<path fill-rule="evenodd" clip-rule="evenodd" d="M32.4269 44.647C32.3328 43.1919 32.0874 41.7666 31.6996 40.4205C31.1919 38.6586 30.4541 37.081 29.5427 35.7709C28.6312 34.4605 27.574 33.4574 26.4498 32.788C25.3297 32.121 24.1594 31.7941 23 31.7941C21.8406 31.7941 20.6703 32.121 19.5502 32.788C18.426 33.4574 17.3688 34.4605 16.4572 35.7709C15.5458 37.081 14.8081 38.6586 14.3004 40.4205C13.9125 41.7666 13.6672 43.1919 13.573 44.647L32.4269 44.647ZM33.7825 44.647C33.6866 43.0675 33.4231 41.5156 32.9996 40.0459C32.4557 38.1582 31.6584 36.443 30.6534 34.9982C29.6483 33.5535 28.4551 32.4074 27.142 31.6255C25.8288 30.8436 24.4213 30.4412 23 30.4412C21.5786 30.4412 20.1712 30.8436 18.858 31.6255C17.5448 32.4074 16.3516 33.5535 15.3466 34.9982C14.3415 36.443 13.5443 38.1582 13.0003 40.0459C12.5768 41.5156 12.3134 43.0675 12.2175 44.647C12.1902 45.0962 12.1765 45.5476 12.1765 46L33.8235 46C33.8235 45.5476 33.8098 45.0962 33.7825 44.647Z"/>
</mask>
<path fill-rule="evenodd" clip-rule="evenodd" d="M32.4269 44.647C32.3328 43.1919 32.0874 41.7666 31.6996 40.4205C31.1919 38.6586 30.4541 37.081 29.5427 35.7709C28.6312 34.4605 27.574 33.4574 26.4498 32.788C25.3297 32.121 24.1594 31.7941 23 31.7941C21.8406 31.7941 20.6703 32.121 19.5502 32.788C18.426 33.4574 17.3688 34.4605 16.4572 35.7709C15.5458 37.081 14.8081 38.6586 14.3004 40.4205C13.9125 41.7666 13.6672 43.1919 13.573 44.647L32.4269 44.647ZM33.7825 44.647C33.6866 43.0675 33.4231 41.5156 32.9996 40.0459C32.4557 38.1582 31.6584 36.443 30.6534 34.9982C29.6483 33.5535 28.4551 32.4074 27.142 31.6255C25.8288 30.8436 24.4213 30.4412 23 30.4412C21.5786 30.4412 20.1712 30.8436 18.858 31.6255C17.5448 32.4074 16.3516 33.5535 15.3466 34.9982C14.3415 36.443 13.5443 38.1582 13.0003 40.0459C12.5768 41.5156 12.3134 43.0675 12.2175 44.647C12.1902 45.0962 12.1765 45.5476 12.1765 46L33.8235 46C33.8235 45.5476 33.8098 45.0962 33.7825 44.647Z" fill="black"/>
<path d="M31.6996 40.4205L29.7778 40.9743L29.7778 40.9743L31.6996 40.4205ZM32.4269 44.647L32.4269 46.647L34.5604 46.647L34.4228 44.518L32.4269 44.647ZM29.5427 35.7709L31.1845 34.6287L31.1845 34.6287L29.5427 35.7709ZM26.4498 32.788L25.4266 34.5064L25.4266 34.5064L26.4498 32.788ZM23 31.7941L23 33.7941L23 33.7941L23 31.7941ZM19.5502 32.788L18.527 31.0695L18.527 31.0695L19.5502 32.788ZM16.4572 35.7709L18.099 36.913L18.099 36.913L16.4572 35.7709ZM14.3004 40.4205L12.3786 39.8667L12.3786 39.8667L14.3004 40.4205ZM13.573 44.647L11.5772 44.518L11.4395 46.647L13.573 46.647L13.573 44.647ZM33.7825 44.647L35.7788 44.5258L35.7788 44.5258L33.7825 44.647ZM32.9996 40.0459L31.0778 40.5996L31.0778 40.5996L32.9996 40.0459ZM30.6534 34.9982L29.0116 36.1404L29.0116 36.1404L30.6534 34.9982ZM27.142 31.6255L28.1652 29.9071L28.1652 29.9071L27.142 31.6255ZM18.858 31.6255L19.8812 33.3439L19.8812 33.3439L18.858 31.6255ZM13.0003 40.0459L11.0785 39.4921L11.0785 39.4921L13.0003 40.0459ZM12.2175 44.647L14.2138 44.7683L14.2138 44.7683L12.2175 44.647ZM12.1765 46H10.1765V48L12.1765 48L12.1765 46ZM33.8235 46L33.8235 48L35.8235 48V46H33.8235ZM29.7778 40.9743C30.1242 42.1764 30.3459 43.4591 30.4311 44.7761L34.4228 44.518C34.3197 42.9248 34.0507 41.3567 33.6214 39.8667L29.7778 40.9743ZM27.9009 36.913C28.6738 38.0241 29.3237 39.3983 29.7778 40.9743L33.6214 39.8667C33.0601 37.9189 32.2344 36.1379 31.1845 34.6287L27.9009 36.913ZM25.4266 34.5064C26.2715 35.0095 27.1276 35.8014 27.9009 36.913L31.1845 34.6287C30.1347 33.1196 28.8765 31.9052 27.473 31.0695L25.4266 34.5064ZM23 33.7941C23.7722 33.7941 24.5919 34.0094 25.4266 34.5064L27.473 31.0695C26.0674 30.2326 24.5465 29.7941 23 29.7941L23 33.7941ZM20.5734 34.5064C21.408 34.0094 22.2278 33.7941 23 33.7941V29.7941C21.4535 29.7941 19.9326 30.2326 18.527 31.0695L20.5734 34.5064ZM18.099 36.913C18.8723 35.8014 19.7285 35.0095 20.5734 34.5064L18.527 31.0695C17.1235 31.9052 15.8652 33.1196 14.8154 34.6287L18.099 36.913ZM16.2222 40.9743C16.6763 39.3983 17.3261 38.0241 18.099 36.913L14.8154 34.6287C13.7656 36.1379 12.9399 37.9189 12.3786 39.8667L16.2222 40.9743ZM15.5689 44.7761C15.6541 43.4591 15.8758 42.1764 16.2222 40.9743L12.3786 39.8667C11.9492 41.3567 11.6802 42.9248 11.5772 44.518L15.5689 44.7761ZM35.7788 44.5258C35.6744 42.8056 35.3871 41.1084 34.9214 39.4921L31.0778 40.5996C31.4591 41.9229 31.6988 43.3294 31.7862 44.7683L35.7788 44.5258ZM34.9214 39.4921C34.3239 37.4185 33.4387 35.4999 32.2952 33.8561L29.0116 36.1404C29.8781 37.3861 30.5874 38.8979 31.0778 40.5996L34.9214 39.4921ZM32.2952 33.8561C31.1519 32.2127 29.7577 30.8553 28.1652 29.9071L26.1188 33.3439C27.1526 33.9595 28.1447 34.8943 29.0116 36.1404L32.2952 33.8561ZM28.1652 29.9071C26.5667 28.9553 24.8086 28.4412 23 28.4412V32.4412C24.034 32.4412 25.0909 32.7319 26.1188 33.3439L28.1652 29.9071ZM23 28.4412C21.1913 28.4412 19.4333 28.9553 17.8348 29.9071L19.8812 33.3439C20.909 32.7319 21.9659 32.4412 23 32.4412V28.4412ZM17.8348 29.9071C16.2423 30.8553 14.848 32.2127 13.7048 33.8561L16.9884 36.1404C17.8553 34.8943 18.8474 33.9595 19.8812 33.3439L17.8348 29.9071ZM13.7048 33.8561C12.5612 35.4999 11.676 37.4185 11.0785 39.4921L14.9222 40.5996C15.4125 38.8979 16.1218 37.3861 16.9884 36.1404L13.7048 33.8561ZM11.0785 39.4921C10.6128 41.1084 10.3256 42.8056 10.2211 44.5258L14.2138 44.7683C14.3011 43.3294 14.5409 41.9229 14.9222 40.5996L11.0785 39.4921ZM10.2211 44.5258C10.1914 45.0154 10.1765 45.5072 10.1765 46H14.1765C14.1765 45.588 14.189 45.1771 14.2138 44.7683L10.2211 44.5258ZM35.8235 46C35.8235 45.5072 35.8086 45.0154 35.7788 44.5258L31.7862 44.7683C31.811 45.1771 31.8235 45.588 31.8235 46H35.8235ZM32.4269 42.647L13.573 42.647L13.573 46.647L32.4269 46.647L32.4269 42.647ZM12.1765 48L33.8235 48L33.8235 44L12.1765 44L12.1765 48Z" fill="black" mask="url(#path-8-inside-3_70_54)"/>
</svg>
